<svg version="1.1" xmlns="http://www.w3.org/2000/svg" width="512px" height="512px" transform="rotate(0) scale(1, 1)">
<path d="M0 0 C4.25909004 1.73025533 7.14380606 3.61681786 9.5838623 7.55873108 C11.3318056 11.80630035 11.41966855 15.20046565 11.38476562 19.73999023 C11.3901384 20.59769012 11.39551117 21.45539001 11.40104675 22.33908081 C11.41079876 24.19365123 11.41377672 26.04826715 11.41069031 27.90286064 C11.40619939 30.84171576 11.42024868 33.77997284 11.43908691 36.71876526 C11.4758129 42.95833387 11.48956939 49.19783923 11.5 55.4375 C11.51209256 62.66690514 11.53369026 69.89601789 11.58000183 77.12529182 C11.59354147 80.01410122 11.58940682 82.90253807 11.58459473 85.79136658 C11.59393881 87.5711209 11.6041085 89.35087115 11.61523438 91.13061523 C11.60908615 91.92823776 11.60293793 92.72586029 11.59660339 93.5476532 C11.65345557 98.74454947 12.51056665 102.40460963 15 107 C19.16775032 109.77850021 22.82512515 110.12448621 27.75269985 110.12749195 C28.68553812 110.1304996 29.6183764 110.13350725 30.5794825 110.13660604 C31.59581782 110.13485567 32.61215314 110.13310529 33.6592865 110.13130188 C34.74555016 110.13341759 35.83181381 110.13553331 36.95099455 110.13771313 C40.59746674 110.14371331 44.24390433 110.14271297 47.89038086 110.1418457 C50.50204019 110.14487712 53.11369899 110.14839853 55.72535706 110.15237427 C61.35269602 110.16048062 66.98003047 110.16542876 72.60737419 110.16866493 C81.50214924 110.17416589 90.39688605 110.19106718 99.29164124 110.21000671 C102.33558172 110.21636311 105.3795223 110.22267157 108.42346287 110.22898388 C109.18413334 110.23056764 109.94480381 110.2321514 110.7285249 110.23378316 C119.38403665 110.25171368 128.03955108 110.26794374 136.69506836 110.28295898 C137.48617052 110.28433486 138.27727268 110.28571073 139.09234763 110.28712829 C151.91756299 110.30906714 164.74276848 110.31981713 177.5679993 110.32732973 C190.7373954 110.33539952 203.90670686 110.35868371 217.07605463 110.3952834 C225.19830362 110.4173104 233.32037858 110.42697249 241.44265593 110.42078307 C247.66520612 110.41723459 253.8875395 110.4344633 260.11003685 110.45946121 C262.66341476 110.46639491 265.21682169 110.46647631 267.77019882 110.45926094 C271.2517141 110.45041513 274.73229098 110.46599848 278.21372986 110.48774719 C279.22783446 110.47930466 280.24193906 110.47086212 281.2867741 110.46216375 C287.01125388 110.52844359 290.58633002 110.98535379 295 115 C298.73304074 119.45203409 299.5010991 122.53144292 299.50793457 128.28686523 C299.51417453 128.9982965 299.5204145 129.70972776 299.52684355 130.44271755 C299.5427365 132.81501832 299.53018471 135.18628626 299.51757812 137.55859375 C299.52300092 139.26401364 299.53012446 140.96942885 299.53881836 142.67483521 C299.55703599 147.29881934 299.54999066 151.92244602 299.53730202 156.54643631 C299.52716627 161.38830775 299.5365693 166.23014883 299.54284668 171.07202148 C299.5501214 179.20269254 299.54053996 187.33321821 299.52148438 195.46386719 C299.49971597 204.86046342 299.50676747 214.25671247 299.52879 223.65330029 C299.54694897 231.72481601 299.54949988 239.79622729 299.53903532 247.86775684 C299.53280313 252.68686933 299.53195723 257.50581869 299.54518127 262.32492065 C299.55674638 266.85586655 299.54870206 271.38636537 299.52560425 275.91726303 C299.52032067 277.57889947 299.52182495 279.2405736 299.53065491 280.90219498 C299.54160851 283.17301405 299.52785113 285.44240629 299.50793457 287.71313477 C299.50567242 289.61785301 299.50567242 289.61785301 299.50336456 291.56105042 C298.71949512 296.91638867 296.36144216 299.76162076 292.42372131 303.34340477 C287.62550883 305.66505866 283.48656969 305.55293871 278.22045898 305.50552368 C276.58978186 305.51465886 276.58978186 305.51465886 274.92616177 305.52397859 C271.2825884 305.53959747 267.63967058 305.52678202 263.99609375 305.51416016 C261.38428331 305.51961994 258.77247607 305.52686075 256.16067505 305.53575134 C250.53604028 305.55224128 244.9115477 305.55439335 239.28689575 305.54698563 C231.14811895 305.53646279 223.00951593 305.54986786 214.87076223 305.56945018 C201.65700497 305.60077979 188.44328446 305.61579462 175.22949219 305.61914062 C174.43895553 305.61934461 173.64841887 305.6195486 172.83392656 305.61975877 C171.64663939 305.62006382 171.64663939 305.62006382 170.43536663 305.62037504 C159.21374146 305.62329501 147.99212763 305.63009841 136.77050781 305.64160156 C135.98093575 305.64240686 135.19136369 305.64321215 134.3778652 305.64404185 C121.21298885 305.65779677 108.04813276 305.67958565 94.88327503 305.7054714 C86.76482961 305.72091442 78.64645042 305.72812631 70.52799058 305.72467647 C64.30919809 305.72239522 58.09045254 305.72974362 51.87166977 305.74055672 C49.31989543 305.74324336 46.76811482 305.74248127 44.21634293 305.73804665 C40.73732914 305.73241793 37.2585415 305.73893855 33.77954102 305.7484436 C32.76611854 305.74378039 31.75269606 305.73911718 30.7085638 305.73431265 C24.68044384 305.76654607 19.5600577 305.92427754 14.6875 309.875 C11.25999739 314.1911144 11.84911164 319.23432245 11.84228516 324.52880859 C11.83720444 325.38782272 11.83212372 326.24683685 11.82688904 327.13188171 C11.81619905 328.99523275 11.80757351 330.85859651 11.80076981 332.72196579 C11.7889649 335.67283551 11.76950829 338.62355993 11.74765015 341.57437134 C11.68608451 349.96359417 11.63198477 358.35280126 11.59863281 366.7421875 C11.57767603 371.87569532 11.5423664 377.0089366 11.49787521 382.14229202 C11.48372523 384.09664395 11.47499504 386.051043 11.47182083 388.00544357 C11.46690647 390.74137989 11.4437355 393.47660982 11.41650391 396.21240234 C11.42101311 397.41894218 11.42101311 397.41894218 11.4256134 398.64985657 C11.35413594 403.49101895 10.64296245 406.79240616 8 411 C3.92526661 414.76912839 0.75745393 416.15001301 -4.75 416.3125 C-5.56984375 416.34988281 -6.3896875 416.38726562 -7.234375 416.42578125 C-14.82358652 415.25738569 -19.98886078 409.4375898 -25.14862061 404.2256012 C-25.94061049 403.43758572 -26.73260037 402.64957024 -27.54858994 401.83767551 C-30.19418993 399.20168147 -32.82895674 396.55512324 -35.46386719 393.90844727 C-37.36085992 392.01388301 -39.25843141 390.11991517 -41.15672302 388.22665405 C-45.77188674 383.62096251 -50.37899025 379.00728919 -54.98333231 374.39078183 C-60.34697348 369.01349916 -65.71825673 363.64387711 -71.08977869 358.27446877 C-80.67339098 348.69404394 -90.24956483 339.10621787 -99.82177734 329.5144043 C-109.10833876 320.20883179 -118.40084689 310.9092496 -127.69970703 301.6159668 C-137.83010702 291.49162494 -147.95737965 281.36417487 -158.07906651 271.23112148 C-159.1583139 270.15066682 -160.23756193 269.07021281 -161.31681061 267.98975945 C-161.84779684 267.45816968 -162.37878307 266.9265799 -162.92585979 266.37888135 C-166.66688387 262.63397897 -170.41003974 258.89121552 -174.15395355 255.14920235 C-178.71559325 250.58968495 -183.27353903 246.02651181 -187.82685795 241.45868439 C-190.14979955 239.12850093 -192.47482359 236.80046679 -194.80313683 234.47564888 C-197.32651549 231.9554845 -199.84367499 229.42926921 -202.35931396 226.90138245 C-203.09675362 226.16772211 -203.83419328 225.43406178 -204.5939796 224.67816931 C-209.71147436 219.51638914 -213.42772093 215.66083667 -213.4375 208.0625 C-213.45683594 207.06347656 -213.47617188 206.06445312 -213.49609375 205.03515625 C-212.35422365 198.0490691 -206.51932705 193.23676572 -201.69628906 188.45336914 C-200.96728394 187.72246567 -200.23827881 186.99156219 -199.48718262 186.23851013 C-197.08484964 183.83248398 -194.67541007 181.43371681 -192.265625 179.03515625 C-190.58620314 177.35692753 -188.90715192 175.67832784 -187.22845459 173.99937439 C-183.71105346 170.48353583 -180.19032403 166.97107664 -176.66699219 163.46118164 C-172.16528896 158.97643494 -167.67016286 154.48516735 -163.17731094 149.99155521 C-159.70993386 146.524451 -156.23994898 143.05996672 -152.76909637 139.59634209 C-151.11161933 137.94203341 -149.45473509 136.28713057 -147.79846954 134.63160896 C-145.475238 132.31056239 -143.14873218 129.99284782 -140.82128906 127.67602539 C-140.14567932 126.99996246 -139.47006958 126.32389954 -138.77398682 125.62734985 C-135.66486678 122.53879831 -132.52073213 119.55063727 -129.19308472 116.69804382 C-123.89648913 112.11828545 -119.0167605 107.1243609 -114.08935547 102.15527344 C-113.01442289 101.07513715 -111.93924082 99.99524909 -110.86383057 98.91558838 C-108.56319962 96.60507913 -106.26405246 94.29310729 -103.9659996 91.98003387 C-100.32963456 88.32046154 -96.68826754 84.66589382 -93.04592896 81.01226807 C-82.69439161 70.62741089 -72.34713921 60.2383102 -62.01025391 49.83886719 C-56.29000219 44.08408128 -50.56439775 38.33467786 -44.83279335 32.59119821 C-41.21230909 28.96262849 -37.59848594 25.32759375 -33.98944449 21.68764448 C-31.74325142 19.42542646 -29.49077119 17.16955164 -27.23645782 14.91542816 C-26.194607 13.87115952 -25.15532635 12.82431919 -24.11886215 11.77470398 C-22.7008113 10.33941779 -21.27248759 8.91430303 -19.84371948 7.48968506 C-18.6508347 6.29070398 -18.6508347 6.29070398 -17.43385124 5.06750107 C-12.06487733 0.50668029 -6.89427583 -1.23444804 0 0 Z " fill="#00b179" transform="translate(213,48)"/>
</svg>