<?xml version="1.0" encoding="UTF-8"?>
<svg id="Layer_1" xmlns="http://www.w3.org/2000/svg" version="1.1" viewBox="0 0 512 512">
  <!-- Generator: Adobe Illustrator 29.5.1, SVG Export Plug-In . SVG Version: 2.1.0 Build 141)  -->
  <defs>
    <style>
      .st0 {
        fill: #00b179;
      }
    </style>
  </defs>
  <path class="st0" d="M479.28,49.31c4.95,4.05,9.26,8.69,13.6,13.47q1.34,1.42,2.7,2.88c9.22,10.04,16.11,20.07,16.42,34.74-.06,23.37-11.91,34.11-26.48,49.92-1.26,1.37-2.52,2.75-3.78,4.12-3.44,3.75-6.89,7.49-10.34,11.24-2.96,3.22-5.92,6.44-8.88,9.66-9.74,10.59-19.48,21.18-29.22,31.77-2.54,2.76-5.07,5.51-7.61,8.27-15.77,17.13-31.54,34.26-47.32,51.38-3.65,3.96-7.3,7.92-10.94,11.87-.91.98-1.81,1.97-2.75,2.98-14.7,15.96-29.39,31.93-44.08,47.91-15.09,16.42-30.19,32.82-45.3,49.21-8.48,9.2-16.96,18.4-25.42,27.62-7.2,7.85-14.41,15.68-21.64,23.49-3.69,3.99-7.37,7.98-11.03,11.99-3.36,3.67-6.73,7.33-10.12,10.97-1.22,1.32-2.43,2.64-3.64,3.97-7.76,8.56-14.27,14.46-25.59,15.24-.94-.13-1.88-.27-2.85-.4q-1.43-.17-2.88-.34c-7.16-1.95-11.93-6.02-17.09-11.59-.64-.68-1.27-1.37-1.93-2.07-2.12-2.28-4.23-4.57-6.34-6.87-1.52-1.64-3.05-3.28-4.57-4.92-4.13-4.45-8.25-8.91-12.36-13.38-3.44-3.73-6.88-7.46-10.33-11.18-8.13-8.79-16.25-17.59-24.36-26.4-8.36-9.08-16.74-18.14-25.13-27.19-7.21-7.78-14.4-15.57-21.59-23.37-4.29-4.65-8.59-9.31-12.89-13.95-4.05-4.37-8.08-8.74-12.11-13.13-1.48-1.6-2.96-3.21-4.44-4.8-10.85-11.66-18.85-21.4-19-38.83.05-17.1,6.02-26.48,16.91-38.33,1.77-1.95,3.47-3.95,5.17-5.97,9.94-11.5,20.58-19.11,35.32-20.21,16.66.34,26.82,9.91,38,22.16.88.96,1.77,1.92,2.68,2.9,2.89,3.13,5.77,6.28,8.65,9.42,2.01,2.19,4.03,4.38,6.04,6.56,5.28,5.73,10.55,11.47,15.83,17.21,5.39,5.87,10.79,11.73,16.18,17.59,10.57,11.48,21.13,22.97,31.69,34.47,3.82-1.84,6.4-3.96,9.34-7.16.87-.94,1.74-1.88,2.63-2.85q1.42-1.55,2.86-3.14c1.01-1.1,2.02-2.19,3.06-3.32,2.8-3.05,5.6-6.1,8.4-9.15,3.02-3.29,6.04-6.58,9.07-9.86,5.24-5.7,10.48-11.4,15.71-17.1,7.58-8.25,15.16-16.5,22.75-24.74,12.32-13.38,24.64-26.77,36.95-40.16.74-.8,1.47-1.6,2.23-2.43,10.46-11.37,20.91-22.75,31.36-34.12q1.1-1.2,2.23-2.43c.73-.8,1.47-1.6,2.23-2.42,12.26-13.34,24.52-26.68,36.8-40,7.57-8.22,15.13-16.44,22.68-24.68,5.18-5.65,10.36-11.28,15.55-16.91,2.99-3.25,5.98-6.5,8.96-9.76,3.24-3.54,6.49-7.06,9.74-10.58.93-1.03,1.87-2.06,2.83-3.12,16.65-17.87,37.88-20.62,57.42-6.11Z"/>
</svg>